<svg version="1.2" xmlns="http://www.w3.org/2000/svg" viewBox="0 0 37 40" width="37" height="40">
	<title>BuyBtn-svg</title>
	<style>
		.s0 { fill: #23a455 } 
		.s1 { fill: none;stroke: #ffffff;stroke-linecap: round;stroke-linejoin: round;stroke-width: 1.5 } 
	</style>
	<g id="Layer">
		<path id="Layer" class="s0" d="m2.4 9c0-3.3 2.7-6 6-6h20.8c3.3 0 6 2.7 6 6v24c0 3.3-2.7 6-6 6h-20.8c-3.3 0-6-2.7-6-6z"/>
	</g>
	<path id="Layer" class="s1" d="m14.6 27.8c0.4 0 0.7 0.4 0.7 0.8 0 0.4-0.3 0.7-0.7 0.7-0.4 0-0.7-0.3-0.7-0.7 0-0.4 0.3-0.8 0.7-0.8z"/>
	<path id="Layer" class="s1" d="m24.9 27.8c0.4 0 0.7 0.4 0.7 0.8 0 0.4-0.3 0.7-0.7 0.7-0.4 0-0.7-0.3-0.7-0.7 0-0.4 0.3-0.8 0.7-0.8z"/>
	<path id="Layer" class="s1" d="m12.6 15.1h13.4c0.7 0 1.3 0.7 1.2 1.5l-0.9 6.6c-0.1 0.9-0.8 1.5-1.6 1.5h-9.9c-0.9 0-1.6-0.7-1.7-1.6l-0.8-11.5-1.9-0.3"/>
	<path id="Layer" class="s1" d="m20.7 18.8h2.6"/>
</svg>