<svg version="1.2" xmlns="http://www.w3.org/2000/svg" viewBox="0 0 48 48" width="48" height="48">
	<title>buycart-svg</title>
	<style>
		.s0 { fill: none;stroke: #0e3746;stroke-width: 1.5 } 
		.s1 { fill: none;stroke: #0e3746;stroke-linecap: round;stroke-linejoin: round;stroke-width: 1.5 } 
	</style>
	<path id="Layer" class="s0" d="m0.8 8c-0.1-4 3.2-7.3 7.2-7.3h32c4 0 7.3 3.3 7.3 7.3l-0.1 32c0 4-3.2 7.3-7.2 7.3h-32c-4 0-7.3-3.3-7.3-7.3z"/>
	<path id="Layer" fill-rule="evenodd" class="s1" d="m19.4 31.8c0.4 0 0.8 0.4 0.8 0.8 0 0.4-0.4 0.7-0.8 0.7-0.4 0-0.7-0.3-0.7-0.7 0-0.4 0.3-0.8 0.7-0.8z"/>
	<path id="Layer" fill-rule="evenodd" class="s1" d="m30.7 31.8c0.4 0 0.7 0.4 0.7 0.8 0 0.4-0.3 0.7-0.7 0.7-0.4 0-0.8-0.3-0.8-0.7 0-0.4 0.4-0.8 0.8-0.8z"/>
	<path id="Layer" class="s1" d="m14.7 15.3l2.1 0.3 1 11.5c0.1 0.9 0.9 1.6 1.8 1.6h10.9c0.9 0 1.7-0.6 1.8-1.5l0.9-6.6c0.2-0.8-0.5-1.5-1.3-1.5h-14.7"/>
	<path id="Layer" class="s1" d="m26.1 22.8h2.8"/>
</svg>