<svg width="54" height="54" viewBox="0 0 54 54" fill="none" xmlns="http://www.w3.org/2000/svg">
<rect width="54" height="54" rx="10" fill="#007F61" fill-opacity="0.1"/>
<path d="M22.0536 38.369L23.8868 37.8336C23.9875 37.8038 24.0964 37.8287 24.1742 37.8993L25.5932 39.1769C25.8563 39.4147 26.1981 39.5463 26.5527 39.5463C26.9073 39.5463 27.2491 39.4147 27.5121 39.1769L28.9318 37.8993V37.8991C29.0094 37.8285 29.1183 37.8038 29.2187 37.8336L31.0516 38.369H31.0518C31.3918 38.4688 31.7569 38.439 32.0762 38.2851C32.3957 38.1314 32.6465 37.8646 32.7804 37.5364L33.5045 35.7698C33.5441 35.6726 33.6316 35.6029 33.7352 35.5859L35.6192 35.2728H35.6194C35.969 35.2153 36.2852 35.03 36.506 34.753C36.727 34.4757 36.8373 34.1264 36.8154 33.7726L36.7014 31.8665V31.8663C36.6957 31.7617 36.7438 31.6615 36.8292 31.6009L38.3906 30.5015C38.6809 30.2981 38.8853 29.994 38.9642 29.6484C39.043 29.3027 38.9909 28.9401 38.8176 28.6307L37.8878 26.9626C37.8364 26.8712 37.8364 26.7595 37.8878 26.668L38.8176 24.9998V25C38.9909 24.6906 39.043 24.3281 38.9642 23.9823C38.8853 23.6368 38.6808 23.3327 38.3906 23.1292L36.8295 22.03C36.744 21.9695 36.6957 21.8692 36.7014 21.7644L36.8154 19.858V19.8582C36.8373 19.5043 36.727 19.155 36.506 18.8778C36.285 18.6007 35.969 18.4154 35.6194 18.358L33.7354 18.0448H33.7352C33.6316 18.0279 33.5443 17.9584 33.5049 17.8613L32.7804 16.0945C32.6466 15.7661 32.3956 15.4994 32.0763 15.3454C31.7568 15.1917 31.3917 15.1617 31.0517 15.2618L29.2191 15.7971C29.1182 15.8269 29.0093 15.8021 28.9315 15.7316L27.5121 14.4539C27.249 14.2163 26.907 14.0848 26.5526 14.0848C26.1982 14.0848 25.8562 14.2163 25.5932 14.4539L24.1741 15.7314C24.0962 15.8017 23.9874 15.8265 23.8868 15.7971L22.0535 15.2617C21.7135 15.1617 21.3484 15.1917 21.0289 15.3454C20.7096 15.4991 20.4586 15.7661 20.3248 16.0943L19.6004 17.8613C19.5603 17.958 19.4733 18.0275 19.3701 18.0448L17.4867 18.358H17.4865C17.1366 18.4152 16.8205 18.6005 16.5994 18.8778C16.3782 19.1548 16.2679 19.5043 16.2898 19.8581L16.4039 21.7642V21.7644C16.4106 21.8692 16.362 21.9696 16.276 22.0298L14.7147 23.1292C14.4244 23.3327 14.2199 23.6368 14.141 23.9823C14.0623 24.3281 14.1144 24.6906 14.2877 25L15.2175 26.668C15.2688 26.7595 15.2688 26.8712 15.2175 26.9628L14.2877 28.6307C14.1144 28.9401 14.0623 29.3026 14.141 29.6484C14.22 29.9939 14.4244 30.298 14.7147 30.5015L16.276 31.6011C16.362 31.6611 16.4106 31.7615 16.4039 31.8663L16.2898 33.7728V33.7726C16.2679 34.1264 16.3782 34.4759 16.5992 34.753C16.8205 35.0302 17.1364 35.2153 17.4863 35.2727L19.3701 35.5859C19.4733 35.6033 19.5603 35.6728 19.6004 35.7694L20.3248 37.5362C20.4586 37.8646 20.7096 38.1314 21.0289 38.2853C21.3484 38.4391 21.7135 38.469 22.0535 38.369L22.0536 38.369ZM30.5129 33.1802C29.8751 33.1802 29.2636 32.9268 28.8127 32.4759C28.3617 32.025 28.1084 31.4135 28.1084 30.7759C28.1084 30.1381 28.3618 29.5266 28.8127 29.0756C29.2636 28.6247 29.8751 28.3713 30.5129 28.3713C31.1505 28.3713 31.7621 28.6247 32.213 29.0756C32.6638 29.5265 32.9172 30.1381 32.9172 30.7759C32.9167 31.4133 32.6631 32.0245 32.2122 32.4752C31.7614 32.9261 31.1503 33.1795 30.5129 33.1803L30.5129 33.1802ZM22.5921 20.4505C23.2299 20.4505 23.8414 20.7039 24.2923 21.1548C24.7433 21.6057 24.9965 22.2173 24.9965 22.8549C24.9965 23.4925 24.7431 24.104 24.2923 24.5549C23.8414 25.0058 23.2299 25.2592 22.5921 25.2592C21.9545 25.2592 21.3429 25.0058 20.892 24.5551C20.4411 24.1041 20.1878 23.4926 20.1878 22.8548C20.1885 22.2174 20.4421 21.6062 20.8928 21.1555C21.3436 20.7046 21.9547 20.4512 22.5921 20.4504L22.5921 20.4505ZM20.0458 33.3106C19.8992 33.1594 19.8181 32.9565 19.8205 32.746C19.8227 32.5354 19.9083 32.3341 20.0583 32.1863L31.9236 20.321C32.0714 20.1708 32.2727 20.0854 32.4832 20.0832C32.6938 20.0808 32.8967 20.1619 33.0478 20.3086L33.0591 20.3198C33.2057 20.471 33.2868 20.6738 33.2844 20.8844C33.2823 21.095 33.1968 21.2962 33.0467 21.4441L21.1813 33.3094C21.0335 33.4594 20.8322 33.545 20.6217 33.5472C20.4111 33.5495 20.2083 33.4684 20.0571 33.3218L20.0458 33.3106Z" fill="#23A455"/>
</svg>
