<svg width="24" height="24" viewBox="0 0 24 24" fill="none" xmlns="http://www.w3.org/2000/svg">
<path d="M9.68082 11.3348L9.68066 11.3346C9.44332 11.0912 9.05936 11.0912 8.82172 11.3227L8.82168 11.3228C8.57826 11.5601 8.57826 11.9441 8.80978 12.1817L10.7137 14.136L10.7137 14.1361L10.715 14.1374C10.8357 14.2581 10.9935 14.319 11.1514 14.319C11.3038 14.319 11.4495 14.2636 11.5683 14.1566L11.5683 14.1567L11.5709 14.1543L15.2089 10.7227L15.2093 10.7224C15.452 10.4917 15.4652 10.1078 15.233 9.86343L15.2331 9.86342L15.2317 9.86203C14.9967 9.62103 14.6149 9.60802 14.3663 9.83837L14.2022 9.99044L14.2043 9.9914L11.1651 12.862L9.68082 11.3348Z" fill="#404040" stroke="#404040" stroke-width="0.3"/>
<path d="M12.0138 4.99044C8.1507 4.99044 5.00967 8.1313 5.00967 11.9945C5.00967 15.8578 8.15053 18.9986 12.0138 18.9986C15.877 18.9986 19.0178 15.8578 19.0178 11.9945C19.0178 8.13131 15.877 4.99044 12.0138 4.99044ZM12.0138 17.7809C8.82109 17.7809 6.22741 15.1827 6.22741 11.9945C6.22741 8.80637 8.82117 6.20818 12.0138 6.20818C15.2064 6.20818 17.8001 8.80187 17.8001 11.9945C17.8001 15.1872 15.2064 17.7809 12.0138 17.7809Z" fill="#404040" stroke="#404040" stroke-width="0.3"/>
<path d="M21.7476 6.75893L21.7476 6.75809C21.7597 6.51672 21.6324 6.29066 21.4129 6.18074C21.4128 6.18069 21.4127 6.18064 21.4126 6.1806L19.0349 4.97822L17.8322 2.5999L17.8317 2.59898C17.7228 2.38713 17.4986 2.25328 17.255 2.26546L17.2544 2.26549L14.5788 2.40963L12.3497 0.937092C12.3496 0.937014 12.3495 0.936936 12.3494 0.936857C12.1478 0.802657 11.8806 0.802653 11.679 0.936862C11.6789 0.93694 11.6788 0.937017 11.6787 0.937095L9.44975 2.40955L6.77888 2.26091L6.77803 2.26087C6.53669 2.2488 6.31066 2.37607 6.20072 2.59555C6.20066 2.59567 6.2006 2.59579 6.20054 2.59591L4.99817 4.97364L2.61984 6.17631L2.61893 6.17677C2.40708 6.28573 2.27322 6.50992 2.2854 6.7535L2.28545 6.75434L2.43408 9.42521L0.961628 11.6542C0.961549 11.6543 0.96147 11.6544 0.961392 11.6545C0.827199 11.8561 0.82719 12.1232 0.96138 12.3248C0.961464 12.3249 0.961548 12.3251 0.961631 12.3252L2.42948 14.5585L2.28083 17.2296L2.28079 17.2304C2.26872 17.4718 2.39605 17.6979 2.61563 17.8078C2.6157 17.8078 2.61576 17.8079 2.61583 17.8079L4.99356 19.0103L6.19623 21.3886L6.1967 21.3895C6.30565 21.6014 6.52984 21.7352 6.77342 21.723L6.77426 21.723L9.44514 21.5744L11.6746 23.0472L11.6758 23.048C11.7755 23.1125 11.8906 23.15 12.0096 23.15C12.1286 23.15 12.2437 23.1125 12.3434 23.048L12.3446 23.0472L14.5741 21.5744L17.2449 21.723L17.2458 21.723C17.4871 21.7351 17.7132 21.6078 17.8231 21.3883C17.8232 21.3882 17.8232 21.3881 17.8233 21.388L19.0256 19.0103L21.404 17.8076L21.4049 17.8071C21.6167 17.6982 21.7506 17.474 21.7384 17.2304L21.7384 17.2296L21.5897 14.5587L23.0622 12.3298C23.0623 12.3296 23.0624 12.3294 23.0625 12.3293C23.1966 12.1277 23.1966 11.8606 23.0624 11.6591C23.0623 11.6589 23.0623 11.6588 23.0622 11.6587L21.5989 9.43004L21.7476 6.75893ZM18.3051 18.0168L18.3051 18.0168L18.3028 18.0179C18.1932 18.0756 18.0941 18.1655 18.0362 18.2864L16.9251 20.4866L14.4494 20.3498L14.4483 20.3497C14.3202 20.3436 14.1897 20.3798 14.0831 20.4449L14.083 20.4449L14.0786 20.4478L12.0142 21.8108L9.95219 20.4493C9.95177 20.449 9.95136 20.4488 9.95094 20.4485C9.85215 20.381 9.73116 20.3449 9.61489 20.3449H9.59195V20.3447L9.58368 20.3452L7.10798 20.482L5.99614 18.2803L5.99615 18.2803L5.99498 18.2781C5.93725 18.1684 5.84728 18.0691 5.72621 18.0113L3.52174 16.9047L3.65854 14.4292L3.65859 14.4281C3.66469 14.3 3.62852 14.1695 3.56335 14.0629L3.56343 14.0628L3.56053 14.0584L2.19752 11.9941L3.56017 9.93022C3.56024 9.93012 3.56031 9.93001 3.56038 9.92991C3.63218 9.82205 3.67014 9.69309 3.6584 9.55643L3.52173 7.0832L5.72339 5.97135L5.7234 5.97137L5.72564 5.9702C5.83524 5.9125 5.93445 5.82261 5.99231 5.70166L7.10336 3.50156L9.57906 3.63837L9.5802 3.63842C9.70832 3.64453 9.83876 3.60835 9.9454 3.54319L9.94545 3.54326L9.94983 3.54037L12.0142 2.17735L14.0781 3.54C14.0782 3.54007 14.0783 3.54014 14.0784 3.54021C14.1862 3.61202 14.3152 3.64997 14.4518 3.63823L16.9251 3.50156L18.0369 5.70322L18.0369 5.70323L18.0381 5.70547C18.0958 5.81507 18.1857 5.91427 18.3066 5.97214L20.5067 7.0832L20.3699 9.5589L20.3699 9.56004C20.3638 9.68815 20.3999 9.8186 20.4651 9.92524L20.465 9.92528L20.4679 9.92967L21.8309 11.9941L20.4683 14.0579C20.4683 14.0579 20.4683 14.0579 20.4683 14.058C20.3963 14.1659 20.3583 14.2949 20.3701 14.4317L20.5067 16.9049L18.3051 18.0168Z" fill="#404040" stroke="#404040" stroke-width="0.3"/>
</svg>
