<svg width="54" height="54" viewBox="0 0 54 54" fill="none" xmlns="http://www.w3.org/2000/svg">
<rect width="54" height="54" rx="10" fill="#F0251A" fill-opacity="0.1"/>
<path d="M24.4286 15H29.5724V23.5714H24.4286V15Z" fill="#F0251A"/>
<path d="M36.4286 15H31.2857V23.5714C31.2857 24.026 31.1051 24.4621 30.7837 24.7837C30.4621 25.1051 30.026 25.2857 29.5714 25.2857H24.4286C23.974 25.2857 23.5379 25.1051 23.2163 24.7837C22.8949 24.4621 22.7143 24.026 22.7143 23.5714V15H17.5714C16.8893 15 16.2354 15.2709 15.7531 15.7531C15.2709 16.2354 15 16.8893 15 17.5714V36.4286C15 37.1107 15.2709 37.7646 15.7531 38.2469C16.2354 38.7291 16.8893 39 17.5714 39H36.4286C37.1107 39 37.7646 38.7291 38.2469 38.2469C38.7291 37.7646 39 37.1107 39 36.4286V17.5714C39 16.8893 38.7291 16.2354 38.2469 15.7531C37.7646 15.2709 37.1107 15 36.4286 15Z" fill="#F0251A"/>
</svg>
