<svg width="62" height="52" viewBox="0 0 62 52" fill="none" xmlns="http://www.w3.org/2000/svg">
<path d="M38.9974 0C37.9605 8.46332 37.6178 13.8369 35.5919 17.3062C32.2802 21.6179 26.5404 22.0286 15.9945 23.003C26.3687 24.2583 31.978 24.5302 35.2995 28.4802C37.781 31.9768 38.2007 37.3863 38.9973 46.0057C40.3499 34.8265 40.562 29.181 45.4636 25.9688C48.949 24.2854 54.1495 23.9179 62 23.0033C52.2658 21.8108 46.6178 21.5365 43.2553 18.5625C40.4125 15.1731 40.1091 9.54469 38.9972 0.000246457L38.9974 0Z" fill="white"/>
<path d="M11.9974 28.0055C11.4566 32.4196 11.2779 35.2223 10.2212 37.0317C8.49398 39.2805 5.50032 39.4948 0 40.0029C5.41077 40.6577 8.33638 40.7995 10.0687 42.8596C11.363 44.6833 11.5819 47.5047 11.9973 52.0003C12.7028 46.1696 12.8135 43.2251 15.3699 41.5498C17.1877 40.6718 19.9002 40.4801 23.9947 40.0031C18.9177 39.3811 15.9719 39.2381 14.2182 37.687C12.7354 35.9192 12.5772 32.9836 11.9973 28.0056L11.9974 28.0055Z" fill="white"/>
</svg>
