<svg width="54" height="54" viewBox="0 0 54 54" fill="none" xmlns="http://www.w3.org/2000/svg">
<rect width="54" height="54" rx="10" fill="#4B4AF0" fill-opacity="0.1"/>
<path d="M15.2911 34.2796H16.8914C17.1005 34.999 17.5372 35.6312 18.1356 36.0818C18.7343 36.5321 19.4626 36.7768 20.2118 36.7787C20.9642 36.7842 21.6975 36.5429 22.2991 36.0914C22.901 35.6399 23.3379 35.0035 23.543 34.2796H28.746C28.9559 35.0012 29.3944 35.6351 29.9956 36.0857C30.5969 36.5364 31.3284 36.7796 32.0798 36.7787C32.8325 36.785 33.5666 36.5437 34.1688 36.0922C34.7712 35.6407 35.2086 35.0039 35.4136 34.2796H37.2513C37.5917 34.2804 37.9184 34.1455 38.1591 33.9047C38.3998 33.664 38.5347 33.3372 38.534 32.9967V30.5405C38.5321 30.254 38.4357 29.976 38.2597 29.7498C38.0836 29.5236 37.8378 29.3619 37.5606 29.2896V29.2656H28.4794C28.2176 29.2656 27.9667 29.1618 27.7816 28.9766C27.5965 28.7915 27.4925 28.5406 27.4925 28.2788V19.9339C27.4932 19.736 27.4151 19.546 27.2756 19.406C27.1359 19.2659 26.9463 19.1872 26.7486 19.1872H23.5774C22.8515 19.1915 22.1702 19.5386 21.7399 20.1233C21.7053 20.1579 21.6705 20.2273 21.6359 20.2619L18.9689 24.2864L17.0886 24.5532C16.5489 24.6274 16.0544 24.8948 15.6969 25.3057C15.3395 25.7167 15.143 26.2434 15.1443 26.7881V30.0898C14.8309 30.1297 14.5425 30.2815 14.3323 30.5174C14.122 30.7531 14.0039 31.0569 14 31.3728V32.9969C13.9994 33.3388 14.1354 33.6668 14.3778 33.9077C14.6202 34.1486 14.9492 34.2826 15.2909 34.2798L15.2911 34.2796ZM32.0933 31.5726C32.5508 31.5802 32.9873 31.7651 33.3107 32.0887C33.6342 32.4122 33.8194 32.8488 33.8268 33.3061C33.8268 33.7659 33.6443 34.2068 33.3191 34.532C32.9939 34.857 32.553 35.0397 32.0933 35.0397C31.6335 35.0397 31.1926 34.857 30.8676 34.532C30.5424 34.2068 30.3597 33.7659 30.3597 33.3061C30.3597 32.8464 30.5424 32.4055 30.8676 32.0803C31.1926 31.7553 31.6335 31.5726 32.0933 31.5726ZM20.2118 31.5752C20.6692 31.5828 21.1057 31.7679 21.4292 32.0915C21.7527 32.4148 21.9378 32.8514 21.9452 33.3089C21.9439 33.7682 21.7609 34.2084 21.4361 34.5332C21.1113 34.8578 20.6711 35.041 20.2118 35.0423C19.7543 35.0349 19.3178 34.8498 18.9944 34.5262C18.6709 34.2027 18.4857 33.7661 18.4783 33.3089C18.4796 32.8495 18.6627 32.4094 18.9875 32.0845C19.3123 31.7597 19.7524 31.5767 20.2118 31.5752ZM39.7505 17.7496V27.2651C39.7505 27.4643 39.6711 27.6554 39.5301 27.796C39.3889 27.9367 39.1976 28.0154 38.9984 28.0146H29.4852C29.2884 28.0118 29.1005 27.9316 28.9623 27.7914C28.8241 27.6511 28.7465 27.4621 28.7465 27.2651V17.7495C28.7465 17.5503 28.826 17.3592 28.967 17.2186C29.1082 17.078 29.2994 16.9993 29.4987 17H39.0013C39.2002 17 39.3907 17.0791 39.5314 17.2195C39.6718 17.36 39.7509 17.5507 39.7509 17.7496L39.7505 17.7496Z" fill="#4B4AF0"/>
</svg>
